# xmcd
#
# Track frame offsets: 
#        150
#        16210
#        35874
#        53914
#        74676
#        100098
#        115717
#        129966
#        148345
#        166940
#        186054
#        198726
#
# Disc length: 2881 seconds
#
# Revision: 0
# Processed by: cddbd v1.5.2PL0 Copyright (c) Steve Scherf et al.
# Submitted via: ExactAudioCopy v1.0b1
#
DISCID=af0b3f0c
DTITLE=Scoundrels - Scoundrels
DYEAR=2011
DGENRE=Blues Rock
TTITLE0=Just Can't See It Through
TTITLE1=Sniff It Up
TTITLE2=Outta Town Blues
TTITLE3=All On My Own
TTITLE4=Little Red Riding Hood
TTITLE5=Hangman's Lament
TTITLE6=Loud N Proud
TTITLE7=Arrogance Blues
TTITLE8=Louisiana Song
TTITLE9=Issues
TTITLE10=Porno
TTITLE11=Gulf Of Mexico
EXTD=
EXTT0=
EXTT1=
EXTT2=
EXTT3=
EXTT4=
EXTT5=
EXTT6=
EXTT7=
EXTT8=
EXTT9=
EXTT10=
EXTT11=
PLAYORDER=
